<?xml version="1.0" encoding="UTF-8"?>
<svg width="150px" height="32px" viewBox="0 0 150 32" version="1.1" xmlns="http://www.w3.org/2000/svg" xmlns:xlink="http://www.w3.org/1999/xlink">
    <!-- Generator: Sketch 55.2 (78181) - https://sketchapp.com -->
    <title>Group 235@3x</title>
    <desc>Created with Sketch.</desc>
    <defs>
        <polygon id="path-1" points="0.405511364 0.677052632 15.6628977 0.677052632 15.6628977 16.2760421 0.405511364 16.2760421"></polygon>
        <polygon id="path-3" points="0.269318182 0.0186947368 5.64801136 0.0186947368 5.64801136 6.73684211 0.269318182 6.73684211"></polygon>
    </defs>
    <g id="Home" stroke="none" stroke-width="1" fill="none" fill-rule="evenodd">
        <g id="Desktop-HD-Color-Opc-5" transform="translate(-25.000000, -34.000000)">
            <g id="Group-235" transform="translate(25.000000, 34.000000)">
                <path d="M0.000255681818,2.34315789 C0.000255681818,1.60378947 0.595142045,0.994947368 1.36474432,0.994947368 L1.65110795,0.994947368 C2.24599432,0.994947368 2.64400568,1.29894737 2.90735795,1.71157895 L7.57610795,8.93515789 L12.263608,1.69305263 C12.5499716,1.23326316 12.9462784,0.994947368 13.4959943,0.994947368 L13.782358,0.994947368 C14.5519602,0.994947368 15.1476989,1.60378947 15.1476989,2.34315789 L15.1476989,15.0901053 C15.1476989,15.832 14.5519602,16.4197895 13.782358,16.4197895 C13.0570739,16.4197895 12.4391761,15.8092632 12.4391761,15.0901053 L12.4391761,5.95663158 L8.6746875,11.5473684 C8.38917614,11.9810526 8.03803977,12.2421053 7.53178977,12.2421053 C7.04599432,12.2421053 6.69400568,11.9810526 6.40849432,11.5473684 L2.66360795,5.99789474 L2.66360795,15.1145263 C2.66360795,15.8522105 2.07213068,16.4197895 1.32127841,16.4197895 C0.573835227,16.4197895 0.000255681818,15.8522105 0.000255681818,15.1145263 L0.000255681818,2.34315789 Z" id="Fill-1" fill="#A7A9AC"></path>
                <path d="M18.8709375,9.84808421 L18.8709375,2.29945263 C18.8709375,1.56092632 19.4649716,0.973136842 20.2354261,0.973136842 C20.9845739,0.973136842 21.578608,1.56092632 21.578608,2.29945263 L21.578608,9.74282105 C21.578608,12.5680842 23.0530398,14.0670316 25.4760511,14.0670316 C27.8734943,14.0670316 29.350483,12.6556632 29.350483,9.84808421 L29.350483,2.29945263 C29.350483,1.56092632 29.944517,0.973136842 30.7141193,0.973136842 C31.463267,0.973136842 32.0590057,1.56092632 32.0590057,2.29945263 L32.0590057,9.71755789 C32.0590057,14.2649263 29.4604261,16.5495579 25.4308807,16.5495579 C21.4243466,16.5495579 18.8709375,14.2649263 18.8709375,9.84808421" id="Fill-3" fill="#A7A9AC"></path>
                <path d="M35.7807102,2.2992 C35.7807102,1.56067368 36.3755966,0.973726316 37.1451989,0.973726316 C37.8934943,0.973726316 38.4883807,1.56067368 38.4883807,2.2992 L38.4883807,13.8756211 L45.4667898,13.8756211 C46.1503125,13.8756211 46.7008807,14.4179368 46.7008807,15.0899368 C46.7008807,15.7653053 46.1503125,16.3118316 45.4667898,16.3118316 L37.1451989,16.3118316 C36.3755966,16.3118316 35.7807102,15.7232 35.7807102,14.9619368 L35.7807102,2.2992 Z" id="Fill-5" fill="#A7A9AC"></path>
                <path d="M50.5547727,3.56193684 L46.8115909,3.56193684 C46.1059091,3.56193684 45.5578977,2.9952 45.5578977,2.32151579 C45.5578977,1.64951579 46.1059091,1.08277895 46.8115909,1.08277895 L57.0490909,1.08277895 C57.7317614,1.08277895 58.2814773,1.64951579 58.2814773,2.32151579 C58.2814773,2.9952 57.7317614,3.56193684 57.0490909,3.56193684 L53.2846023,3.56193684 L53.2846023,15.0895158 C53.2846023,15.8314105 52.6675568,16.4200421 51.9192614,16.4200421 C51.1701136,16.4200421 50.5547727,15.8314105 50.5547727,15.0895158 L50.5547727,3.56193684 Z" id="Fill-7" fill="#A7A9AC"></path>
                <path d="M61.1890909,2.2992 C61.1890909,1.56067368 61.7848295,0.973726316 62.5535795,0.973726316 C63.3027273,0.973726316 63.8976136,1.56067368 63.8976136,2.2992 L63.8976136,15.0899368 C63.8976136,15.8318316 63.3027273,16.4204632 62.5535795,16.4204632 C61.7848295,16.4204632 61.1890909,15.8318316 61.1890909,15.0899368 L61.1890909,2.2992 Z" id="Fill-9" fill="#A7A9AC"></path>
                <g id="Group-13" transform="translate(68.181818, 0.165389)">
                    <mask id="mask-2" fill="white">
                        <use xlink:href="#path-1"></use>
                    </mask>
                    <g id="Clip-12"></g>
                    <path d="M10.1367614,9.76909474 L8.00011364,4.74593684 L5.86517045,9.76909474 L10.1367614,9.76909474 Z M0.603238636,13.9905684 L5.97426136,2.0032 C6.35096591,1.17877895 7.03278409,0.676884211 7.95494318,0.676884211 L8.15693182,0.676884211 C9.07909091,0.676884211 9.74130682,1.17877895 10.1163068,2.0032 L15.485625,13.9905684 C15.5964205,14.2297263 15.6628977,14.4486737 15.6628977,14.6650947 C15.6628977,15.5585684 14.9572159,16.2760421 14.0546591,16.2760421 C13.26375,16.2760421 12.7353409,15.8179368 12.4268182,15.1223579 L11.3921591,12.7307789 L4.610625,12.7307789 L3.5325,15.2318316 C3.24698864,15.8827789 2.67255682,16.2760421 1.96772727,16.2760421 C1.08818182,16.2760421 0.405511364,15.5796211 0.405511364,14.7080421 C0.405511364,14.4688842 0.493295455,14.2297263 0.603238636,13.9905684 L0.603238636,13.9905684 Z" id="Fill-11" fill="#6D6E71" mask="url(#mask-2)"></path>
                </g>
                <path d="M92.5857955,8.76134737 C94.2818182,8.76134737 95.2730114,7.76092632 95.2730114,6.45566316 L95.2730114,6.41271579 C95.2730114,4.91124211 94.2170455,4.10703158 92.5193182,4.10703158 L89.9002841,4.10703158 L89.9002841,8.76134737 L92.5857955,8.76134737 Z M86.5090909,2.75797895 C86.5090909,1.8224 87.2573864,1.08218947 88.2059659,1.08218947 L92.8073864,1.08218947 C96.4849432,1.08218947 98.7085227,3.23629474 98.7085227,6.34618947 L98.7085227,6.39082105 C98.7085227,9.91334737 95.9326705,11.7407158 92.4767045,11.7407158 L89.9002841,11.7407158 L89.9002841,14.7664 C89.9002841,15.7028211 89.1519886,16.4413474 88.2059659,16.4413474 C87.2573864,16.4413474 86.5090909,15.7028211 86.5090909,14.7664 L86.5090909,2.75797895 Z" id="Fill-14" fill="#6D6E71"></path>
                <path d="M123.884403,10.4357053 L118.908835,3.75696842 C118.665937,3.43191579 118.490369,3.04033684 118.490369,2.55949474 C118.490369,1.67023158 119.238665,0.952757895 120.18554,0.952757895 C120.955142,0.952757895 121.44179,1.36538947 121.857699,1.97423158 L125.601733,7.30307368 L129.41054,1.93128421 C129.828153,1.3216 130.336108,0.930021053 131.040085,0.930021053 C132.073892,0.930021053 132.690937,1.65002105 132.690937,2.55949474 C132.690937,3.01844211 132.469347,3.43191579 132.250312,3.7376 L127.275597,10.3691789 L127.275597,14.7666526 C127.275597,15.7022316 126.524744,16.4407579 125.579574,16.4407579 C124.632699,16.4407579 123.884403,15.7022316 123.884403,14.7666526 L123.884403,10.4357053 Z" id="Fill-16" fill="#6D6E71"></path>
                <path d="M114.605966,8.59688421 C113.701705,16.2625684 106.557102,13.4600421 106.263068,12.6912 C111.895739,13.4794105 111.578693,8.59688421 111.578693,8.59688421 L110.061648,8.59688421 L113.07017,5.58383158 L116.080398,8.59688421 L114.605966,8.59688421 Z M102.539489,8.62888421 L104.013068,8.62888421 C104.91733,0.964042105 112.062784,3.76572632 112.355966,4.53204211 C106.724148,3.74635789 107.041193,8.62888421 107.041193,8.62888421 L108.555682,8.62888421 L105.548011,11.6402526 L102.539489,8.62888421 Z M109.261364,0.884884211 C104.503977,0.884884211 101.048011,4.43014737 101.048011,8.76025263 L101.048011,8.8032 C101.048011,13.1333053 104.458807,16.6347789 109.216193,16.6347789 C113.971875,16.6347789 117.429545,13.0895158 117.429545,8.76025263 L117.429545,8.71646316 C117.429545,4.38635789 114.016193,0.884884211 109.261364,0.884884211 L109.261364,0.884884211 Z" id="Fill-18" fill="#C7A328"></path>
                <path d="M142.399687,9.79014737 L142.399687,11.8432 C143.096847,11.7387789 143.452244,11.4162526 143.452244,10.8916211 C143.452244,10.3922526 143.201676,10.0823579 142.399687,9.79014737" id="Fill-20" fill="#7AC143"></path>
                <path d="M142.474602,13.6778947 L142.474602,15.1296842 L140.929432,15.1296842 L140.929432,13.6458947 C139.652727,13.4858947 138.405,12.9873684 137.424886,12.2538947 L138.583125,10.5814737 C139.383409,11.1827368 140.127443,11.5953684 141.004432,11.7705263 L141.004432,9.43536842 C138.865227,8.86442105 137.810966,8.04336842 137.810966,6.312 C137.810966,4.68336842 139.058693,3.61305263 140.929432,3.42273684 L140.929432,2.56968421 L142.474602,2.56968421 L142.474602,3.45221053 C143.528011,3.59705263 144.43483,3.97852632 145.235966,4.536 L144.239659,6.25389474 C143.64733,5.85557895 143.024318,5.54821053 142.399602,5.38652632 L142.399602,7.60294737 C144.658125,8.20421053 145.621193,9.12968421 145.621193,10.7734737 C145.621193,12.4012632 144.360682,13.4715789 142.474602,13.6778947 M141.583125,0.885473684 C136.827443,0.885473684 133.371477,4.42989474 133.371477,8.76084211 L133.371477,8.80294737 C133.371477,13.1338947 136.782273,16.6345263 141.539659,16.6345263 C146.294489,16.6345263 149.751307,13.0892632 149.751307,8.76084211 L149.751307,8.71621053 C149.751307,4.38694737 146.337955,0.885473684 141.583125,0.885473684" id="Fill-22" fill="#7AC143"></path>
                <path d="M139.979318,6.18071579 C139.979318,6.63376842 140.187273,6.94366316 141.004602,7.23418947 L141.004602,5.25608421 C140.292102,5.35797895 139.979318,5.70913684 139.979318,6.18071579" id="Fill-24" fill="#7AC143"></path>
                <path d="M0.484602273,27.2544 L0.484602273,27.2367158 C0.484602273,25.7933474 1.60193182,24.6051368 3.16840909,24.6051368 C3.94397727,24.6051368 4.48602273,24.8122947 4.91642045,25.1718737 C5.01357955,25.2459789 5.14738636,25.4160842 5.14738636,25.6628211 C5.14738636,26.0198737 4.84738636,26.3070316 4.48602273,26.3070316 C4.29767045,26.3070316 4.15278409,26.2253474 4.06670455,26.1621895 C3.80931818,25.9651368 3.54170455,25.8438737 3.15903409,25.8438737 C2.43460227,25.8438737 1.918125,26.4746105 1.918125,27.2190316 L1.918125,27.2367158 C1.918125,28.0122947 2.42267045,28.6329263 3.21698864,28.6329263 C3.59710227,28.6329263 3.89539773,28.5024 4.17238636,28.2868211 C4.24738636,28.2312421 4.39056818,28.1562947 4.561875,28.1562947 C4.90704545,28.1562947 5.17551136,28.4249263 5.17551136,28.7693474 C5.17551136,28.9529263 5.086875,29.1087158 4.96414773,29.2198737 C4.53375,29.6072421 3.99170455,29.8682947 3.14880682,29.8682947 C1.61301136,29.8682947 0.484602273,28.6994526 0.484602273,27.2544" id="Fill-26" fill="#C7A328"></path>
                <path d="M9.59744318,27.9738947 L9.59744318,27.7204211 C9.346875,27.6050526 9.02471591,27.5317895 8.67017045,27.5317895 C8.05142045,27.5317895 7.66960227,27.7743158 7.66960227,28.2307368 L7.66960227,28.2509474 C7.66960227,28.6332632 7.99261364,28.8597895 8.46136364,28.8597895 C9.13806818,28.8597895 9.59744318,28.4917895 9.59744318,27.9738947 M6.26420455,28.3056842 L6.26420455,28.2863158 C6.26420455,27.1797895 7.11477273,26.6711579 8.32840909,26.6711579 C8.84147727,26.6711579 9.21477273,26.7545263 9.57613636,26.88 L9.57613636,26.7949474 C9.57613636,26.1995789 9.20795455,25.8694737 8.48011364,25.8694737 C8.07954545,25.8694737 7.75482955,25.9284211 7.47698864,26.0109474 C7.39090909,26.0387368 7.33380682,26.0513684 7.26732955,26.0513684 C6.93323864,26.0513684 6.66392045,25.7928421 6.66392045,25.4627368 C6.66392045,25.2092632 6.82755682,24.9936842 7.05767045,24.9044211 C7.51448864,24.7351579 8.01392045,24.6408421 8.68977273,24.6408421 C9.48153409,24.6408421 10.0559659,24.8496842 10.4190341,25.2092632 C10.8017045,25.5865263 10.9747159,26.1414737 10.9747159,26.8244211 L10.9747159,29.1258947 C10.9747159,29.5132632 10.6576705,29.8113684 10.2664773,29.8113684 C9.84630682,29.8113684 9.56931818,29.52 9.56931818,29.2202105 L9.56931818,29.2143158 C9.21477273,29.5957895 8.72727273,29.8517895 8.02244318,29.8517895 C7.05767045,29.8517895 6.26420455,29.3044211 6.26420455,28.3056842" id="Fill-28" fill="#C7A328"></path>
                <path d="M12.4730114,29.2789895 C12.31875,29.1813053 12.1943182,29.0128842 12.1943182,28.7846737 C12.1943182,28.4646737 12.4448864,28.2187789 12.76875,28.2187789 C12.8761364,28.2187789 12.9801136,28.2507789 13.0559659,28.2962526 C13.5417614,28.5968842 14.0284091,28.7459368 14.4409091,28.7459368 C14.8619318,28.7459368 15.0528409,28.5968842 15.0528409,28.3728842 L15.0528409,28.3526737 C15.0528409,28.0427789 14.5542614,27.9324632 13.9900568,27.7657263 C13.2767045,27.5594105 12.4627841,27.2293053 12.4627841,26.2440421 L12.4627841,26.2255158 C12.4627841,25.1981474 13.3056818,24.6221474 14.3369318,24.6221474 C14.8713068,24.6221474 15.4244318,24.7644632 15.9204545,25.0112 C16.1318182,25.1139368 16.2647727,25.3008842 16.2647727,25.5476211 C16.2647727,25.8693053 16.0065341,26.1168842 15.6801136,26.1168842 C15.5769886,26.1168842 15.5096591,26.0975158 15.4167614,26.0512 C15.0042614,25.8499368 14.6122159,25.7269895 14.3071023,25.7269895 C13.9534091,25.7269895 13.7710227,25.8768842 13.7710227,26.0773053 L13.7710227,26.0975158 C13.7710227,26.3804632 14.2585227,26.5118316 14.8133523,26.6996211 C15.5292614,26.9354105 16.3610795,27.2756211 16.3610795,28.2002526 L16.3610795,28.2187789 C16.3610795,29.3446737 15.5096591,29.8516211 14.4017045,29.8516211 C13.7710227,29.8516211 13.0934659,29.6730947 12.4730114,29.2789895" id="Fill-30" fill="#C7A328"></path>
                <path d="M20.8135227,27.9738947 L20.8135227,27.7204211 C20.5638068,27.6050526 20.2399432,27.5317895 19.88625,27.5317895 C19.2649432,27.5317895 18.8822727,27.7743158 18.8822727,28.2307368 L18.8822727,28.2509474 C18.8822727,28.6332632 19.2052841,28.8597895 19.6765909,28.8597895 C20.355,28.8597895 20.8135227,28.4917895 20.8135227,27.9738947 M17.4785795,28.3056842 L17.4785795,28.2863158 C17.4785795,27.1797895 18.3282955,26.6711579 19.5419318,26.6711579 C20.0575568,26.6711579 20.4291477,26.7545263 20.7939205,26.88 L20.7939205,26.7949474 C20.7939205,26.1995789 20.4214773,25.8694737 19.6944886,25.8694737 C19.2930682,25.8694737 18.9683523,25.9284211 18.6922159,26.0109474 C18.6044318,26.0387368 18.5473295,26.0513684 18.4817045,26.0513684 C18.1476136,26.0513684 17.8808523,25.7928421 17.8808523,25.4627368 C17.8808523,25.2092632 18.0427841,24.9936842 18.2703409,24.9044211 C18.7288636,24.7351579 19.2274432,24.6408421 19.9067045,24.6408421 C20.6976136,24.6408421 21.2703409,24.8496842 21.6325568,25.2092632 C22.0160795,25.5865263 22.1873864,26.1414737 22.1873864,26.8244211 L22.1873864,29.1258947 C22.1873864,29.5132632 21.8728977,29.8113684 21.48,29.8113684 C21.0606818,29.8113684 20.7853977,29.52 20.7853977,29.2202105 L20.7853977,29.2143158 C20.4291477,29.5957895 19.9425,29.8517895 19.2368182,29.8517895 C18.2703409,29.8517895 17.4785795,29.3044211 17.4785795,28.3056842" id="Fill-32" fill="#C7A328"></path>
                <path d="M28.2917045,27.2186105 L28.2917045,27.2362947 C28.2917045,28.0775579 28.8652841,28.6333474 29.5436932,28.6333474 C30.2221023,28.6333474 30.7846023,28.0775579 30.7846023,27.2362947 L30.7846023,27.2186105 C30.7846023,26.3798737 30.2221023,25.8224 29.5436932,25.8224 C28.8652841,25.8224 28.2917045,26.3706105 28.2917045,27.2186105 L28.2917045,27.2186105 Z M32.218125,29.0990316 C32.218125,29.4939789 31.8917045,29.8114526 31.4911364,29.8114526 C31.0897159,29.8114526 30.7658523,29.4939789 30.7658523,29.0990316 L30.7658523,29.0308211 C30.4113068,29.5040842 29.9246591,29.8518737 29.17125,29.8518737 C27.9763636,29.8518737 26.8402841,28.9297684 26.8402841,27.2362947 L26.8402841,27.2186105 C26.8402841,25.5268211 27.9576136,24.6047158 29.17125,24.6047158 C29.9442614,24.6047158 30.4206818,24.9516632 30.7658523,25.3575579 L30.7658523,23.5301895 C30.7658523,23.1327158 31.0897159,22.8085053 31.4911364,22.8085053 C31.8917045,22.8085053 32.218125,23.1327158 32.218125,23.5301895 L32.218125,29.0990316 Z" id="Fill-34" fill="#C7A328"></path>
                <path d="M37.2605114,26.8345263 C37.1735795,26.1903158 36.7917614,25.7557895 36.1815341,25.7557895 C35.5815341,25.7557895 35.1877841,26.1818947 35.0752841,26.8345263 L37.2605114,26.8345263 Z M36.3238636,29.8686316 C34.7880682,29.8686316 33.6502841,28.8016842 33.6502841,27.2547368 L33.6502841,27.2370526 C33.6502841,25.7928421 34.6917614,24.6046316 36.1815341,24.6046316 C37.8903409,24.6046316 38.6463068,25.9898947 38.6463068,27.0442105 C38.6463068,27.4543158 38.3497159,27.7271579 37.9670455,27.7271579 L35.0914773,27.7271579 C35.2372159,28.3797895 35.6923295,28.7216842 36.3443182,28.7216842 C36.7457386,28.7216842 37.0798295,28.5970526 37.3755682,28.3797895 C37.4803977,28.3056842 37.5741477,28.2669474 37.7301136,28.2669474 C38.0548295,28.2669474 38.2917614,28.5111579 38.2917614,28.8345263 C38.2917614,29.0214737 38.2065341,29.1629474 38.1,29.2572632 C37.6534091,29.6311579 37.0678977,29.8686316 36.3238636,29.8686316 L36.3238636,29.8686316 Z" id="Fill-36" fill="#C7A328"></path>
                <path d="M46.7462216,26.8345263 C46.660142,26.1903158 46.2783239,25.7557895 45.666392,25.7557895 C45.0646875,25.7557895 44.6743466,26.1818947 44.5592898,26.8345263 L46.7462216,26.8345263 Z M45.8087216,29.8686316 C44.2729261,29.8686316 43.1376989,28.8016842 43.1376989,27.2547368 L43.1376989,27.2370526 C43.1376989,25.7928421 44.175767,24.6046316 45.666392,24.6046316 C47.3760511,24.6046316 48.132017,25.9898947 48.132017,27.0442105 C48.132017,27.4543158 47.8362784,27.7271579 47.453608,27.7271579 L44.5780398,27.7271579 C44.7186648,28.3797895 45.1797443,28.7216842 45.8300284,28.7216842 C46.2314489,28.7216842 46.5655398,28.5970526 46.8612784,28.3797895 C46.9669602,28.3056842 47.063267,28.2669474 47.2158239,28.2669474 C47.5388352,28.2669474 47.7766193,28.5111579 47.7766193,28.8345263 C47.7766193,29.0214737 47.691392,29.1629474 47.5874148,29.2572632 C47.1357102,29.6311579 46.5561648,29.8686316 45.8087216,29.8686316 L45.8087216,29.8686316 Z" id="Fill-38" fill="#C7A328"></path>
                <path d="M49.622642,25.3571368 C49.622642,24.9613474 49.9456534,24.6405053 50.3487784,24.6405053 C50.7501989,24.6405053 51.0740625,24.9613474 51.0740625,25.3571368 L51.0740625,25.4160842 C51.4081534,24.9941895 51.8470739,24.6042947 52.585142,24.6042947 C53.2533239,24.6042947 53.7578693,24.8939789 54.025483,25.4059789 C54.4712216,24.8889263 55.0090057,24.6042947 55.7078693,24.6042947 C56.7842898,24.6042947 57.4371307,25.2459789 57.4371307,26.4636632 L57.4371307,29.0994526 C57.4371307,29.4935579 57.1107102,29.8118737 56.710142,29.8118737 C56.3078693,29.8118737 55.9857102,29.4935579 55.9857102,29.0994526 L55.9857102,26.9360842 C55.9857102,26.2565053 55.6771875,25.9061895 55.1334375,25.9061895 C54.5905398,25.9061895 54.253892,26.2565053 54.253892,26.9360842 L54.253892,29.0994526 C54.253892,29.4935579 53.9291761,29.8118737 53.5277557,29.8118737 C53.1271875,29.8118737 52.8016193,29.4935579 52.8016193,29.0994526 L52.8016193,26.9360842 C52.8016193,26.2565053 52.497358,25.9061895 51.9519034,25.9061895 C51.4081534,25.9061895 51.0740625,26.2565053 51.0740625,26.9360842 L51.0740625,29.0994526 C51.0740625,29.4935579 50.7501989,29.8118737 50.3487784,29.8118737 C49.9456534,29.8118737 49.622642,29.4935579 49.622642,29.0994526 L49.622642,25.3571368 Z" id="Fill-40" fill="#C7A328"></path>
                <g id="Group-44" transform="translate(58.806818, 24.586442)">
                    <mask id="mask-4" fill="white">
                        <use xlink:href="#path-3"></use>
                    </mask>
                    <g id="Clip-43"></g>
                    <path d="M4.19829545,2.65027368 L4.19829545,2.63258947 C4.19829545,1.79385263 3.62471591,1.23553684 2.94630682,1.23553684 C2.26789773,1.23553684 1.70539773,1.79385263 1.70539773,2.63258947 L1.70539773,2.65027368 C1.70539773,3.49153684 2.26789773,4.04648421 2.94630682,4.04648421 C3.62471591,4.04648421 4.19829545,3.5008 4.19829545,2.65027368 L4.19829545,2.65027368 Z M0.269318182,0.770694737 C0.269318182,0.374905263 0.596590909,0.0540631579 0.996306818,0.0540631579 C1.40028409,0.0540631579 1.72329545,0.374905263 1.72329545,0.770694737 L1.72329545,0.839747368 C2.07784091,0.365642105 2.56534091,0.0186947368 3.32215909,0.0186947368 C4.51193182,0.0186947368 5.64801136,0.939957895 5.64801136,2.63258947 L5.64801136,2.65027368 C5.64801136,4.34290526 4.53238636,5.26501053 3.32215909,5.26501053 C2.54488636,5.26501053 2.06761364,4.91722105 1.72329545,4.51301053 L1.72329545,6.02037895 C1.72329545,6.41616842 1.40028409,6.73701053 0.996306818,6.73701053 C0.596590909,6.73701053 0.269318182,6.41616842 0.269318182,6.02037895 L0.269318182,0.770694737 Z" id="Fill-42" fill="#C7A328" mask="url(#mask-4)"></path>
                </g>
                <path d="M69.2723864,26.8345263 C69.1854545,26.1903158 68.8027841,25.7557895 68.1891477,25.7557895 C67.5908523,25.7557895 67.1979545,26.1818947 67.0846023,26.8345263 L69.2723864,26.8345263 Z M68.3331818,29.8686316 C66.7982386,29.8686316 65.6613068,28.8016842 65.6613068,27.2547368 L65.6613068,27.2370526 C65.6613068,25.7928421 66.7027841,24.6046316 68.1891477,24.6046316 C69.9022159,24.6046316 70.655625,25.9898947 70.655625,27.0442105 C70.655625,27.4543158 70.3590341,27.7271579 69.9772159,27.7271579 L67.1016477,27.7271579 C67.2465341,28.3797895 67.7059091,28.7216842 68.3519318,28.7216842 C68.7550568,28.7216842 69.0891477,28.5970526 69.3857386,28.3797895 C69.4897159,28.3056842 69.5843182,28.2669474 69.7411364,28.2669474 C70.0632955,28.2669474 70.3010795,28.5111579 70.3010795,28.8345263 C70.3010795,29.0214737 70.2141477,29.1629474 70.111875,29.2572632 C69.6635795,29.6311579 69.0789205,29.8686316 68.3331818,29.8686316 L68.3331818,29.8686316 Z" id="Fill-45" fill="#C7A328"></path>
                <path d="M73.0617614,24.2650105 C72.8342045,24.2650105 72.6322159,24.0763789 72.6322159,23.8751158 C72.6322159,23.8111158 72.6518182,23.6999579 72.6825,23.6241684 C72.8913068,23.0768 73.1682955,22.7012211 73.7521023,22.7012211 C74.3427273,22.7012211 74.8413068,23.0633263 75.1822159,23.0633263 C75.4131818,23.0633263 75.5180114,22.9833263 75.6313636,22.7946947 C75.7072159,22.6692211 75.8342045,22.5749053 76.0038068,22.5749053 C76.235625,22.5749053 76.4333523,22.7660632 76.4333523,22.9605895 C76.4333523,23.0288 76.4163068,23.1416421 76.3898864,23.2157474 C76.1768182,23.7648 75.8998295,24.1378526 75.3177273,24.1378526 C74.7253977,24.1378526 74.2285227,23.7765895 73.8842045,23.7765895 C73.6566477,23.7765895 73.5501136,23.8616421 73.4367614,24.0469053 C73.3575,24.1732211 73.235625,24.2650105 73.0617614,24.2650105 L73.0617614,24.2650105 Z M72.1455682,25.3572211 C72.1455682,24.9614316 72.4728409,24.6405895 72.8708523,24.6405895 C73.2722727,24.6405895 73.5978409,24.9614316 73.5978409,25.3572211 L73.5978409,25.4161684 C73.9344886,24.9942737 74.3614773,24.6043789 75.0978409,24.6043789 C76.1964205,24.6043789 76.8373295,25.3218526 76.8373295,26.4831158 L76.8373295,29.0995368 C76.8373295,29.4936421 76.5109091,29.8111158 76.1086364,29.8111158 C75.7072159,29.8111158 75.3850568,29.4936421 75.3850568,29.0995368 L75.3850568,26.9353263 C75.3850568,26.2565895 75.0603409,25.9062737 74.5055114,25.9062737 C73.9506818,25.9062737 73.5978409,26.2565895 73.5978409,26.9353263 L73.5978409,29.0995368 C73.5978409,29.4936421 73.2722727,29.8111158 72.8708523,29.8111158 C72.4728409,29.8111158 72.1455682,29.4936421 72.1455682,29.0995368 L72.1455682,25.3572211 Z" id="Fill-47" fill="#C7A328"></path>
                <path d="M82.3377273,27.2544 L82.3377273,27.2367158 C82.3377273,26.4922947 81.7948295,25.8438737 80.9928409,25.8438737 C80.1610227,25.8438737 79.6632955,26.4746105 79.6632955,27.2190316 L79.6632955,27.2367158 C79.6632955,27.9845053 80.2078977,28.6329263 81.0090341,28.6329263 C81.8425568,28.6329263 82.3377273,28.0013474 82.3377273,27.2544 M78.2297727,27.2544 L78.2297727,27.2367158 C78.2297727,25.7807158 79.4161364,24.6051368 81.0090341,24.6051368 C82.5968182,24.6051368 83.7721023,25.7664 83.7721023,27.2190316 L83.7721023,27.2367158 C83.7721023,28.6910316 82.5857386,29.8682947 80.9928409,29.8682947 C79.4059091,29.8682947 78.2297727,28.7087158 78.2297727,27.2544" id="Fill-49" fill="#C7A328"></path>
                <path d="M88.150483,24.8415158 L85.8953693,29.7366737" id="Fill-51" fill="#ADE0EE"></path>
                <path d="M85.8034091,29.9410526 C85.6900568,29.8863158 85.640625,29.7566316 85.6917614,29.6446316 L87.9451705,24.7486316 C87.9946023,24.6408421 88.1301136,24.5869474 88.2400568,24.6408421 C88.3542614,24.6905263 88.4079545,24.8202105 88.3542614,24.9330526 L86.1017045,29.8273684 C86.0659091,29.9124211 85.9815341,29.9629474 85.8954545,29.9629474 C85.8647727,29.9629474 85.8332386,29.952 85.8034091,29.9410526" id="Fill-53" fill="#ADE0EE"></path>
                <path d="M89.5013352,24.8415158 L87.2470739,29.7366737" id="Fill-55" fill="#ADE0EE"></path>
                <path d="M87.1551136,29.9410526 C87.0417614,29.8863158 86.9897727,29.7566316 87.0417614,29.6446316 L89.2977273,24.7486316 C89.3488636,24.6408421 89.4826705,24.5869474 89.5934659,24.6408421 C89.7059659,24.6905263 89.7596591,24.8202105 89.7059659,24.9330526 L87.4551136,29.8273684 C87.4150568,29.9124211 87.3315341,29.9629474 87.2471591,29.9629474 C87.2181818,29.9629474 87.1857955,29.952 87.1551136,29.9410526" id="Fill-57" fill="#ADE0EE"></path>
                <path d="M90.8513352,24.8415158 L88.5987784,29.7366737" id="Fill-59" fill="#ADE0EE"></path>
                <path d="M88.5042614,29.9410526 C88.3926136,29.8863158 88.3423295,29.7566316 88.3960227,29.6446316 L90.6434659,24.7486316 C90.6988636,24.6408421 90.8335227,24.5869474 90.9460227,24.6408421 C91.059375,24.6905263 91.1088068,24.8202105 91.0568182,24.9330526 L88.8059659,29.8273684 C88.7659091,29.9124211 88.6823864,29.9629474 88.5988636,29.9629474 C88.5673295,29.9629474 88.5332386,29.952 88.5042614,29.9410526" id="Fill-61" fill="#ADE0EE"></path>
                <path d="M92.2055114,24.8415158 L89.9503977,29.7366737" id="Fill-63" fill="#ADE0EE"></path>
                <path d="M89.8575852,29.9410526 C89.744233,29.8863158 89.6930966,29.7566316 89.7467898,29.6446316 L91.997642,24.7486316 C92.0496307,24.6408421 92.181733,24.5869474 92.2959375,24.6408421 C92.4092898,24.6905263 92.4604261,24.8202105 92.4084375,24.9330526 L90.1533239,29.8273684 C90.1175284,29.9124211 90.0357102,29.9629474 89.950483,29.9629474 C89.9189489,29.9629474 89.8874148,29.952 89.8575852,29.9410526" id="Fill-65" fill="#ADE0EE"></path>
                <path d="M93.5554261,24.8415158 L91.3037216,29.7366737" id="Fill-67" fill="#ADE0EE"></path>
                <path d="M91.2092045,29.9410526 C91.095,29.8863158 91.0438636,29.7566316 91.095,29.6446316 L93.3509659,24.7486316 C93.4029545,24.6408421 93.5359091,24.5869474 93.6467045,24.6408421 C93.7609091,24.6905263 93.8111932,24.8202105 93.7609091,24.9330526 L91.5092045,29.8273684 C91.47,29.9124211 91.385625,29.9629474 91.3029545,29.9629474 C91.2705682,29.9629474 91.2398864,29.952 91.2092045,29.9410526" id="Fill-69" fill="#ADE0EE"></path>
                <path d="M94.907983,24.8415158 L92.6537216,29.7366737" id="Fill-71" fill="#ADE0EE"></path>
                <path d="M92.5616761,29.9410526 C92.4483239,29.8863158 92.3980398,29.7566316 92.4483239,29.6446316 L94.7025852,24.7486316 C94.7511648,24.6408421 94.8858239,24.5869474 94.9991761,24.6408421 C95.1133807,24.6905263 95.1628125,24.8202105 95.1133807,24.9330526 L92.8599716,29.8273684 C92.8233239,29.9124211 92.7415057,29.9629474 92.6537216,29.9629474 C92.6230398,29.9629474 92.5889489,29.952 92.5616761,29.9410526" id="Fill-73" fill="#ADE0EE"></path>
                <path d="M96.2596023,24.8415158 L94.0061932,29.7366737" id="Fill-75" fill="#ADE0EE"></path>
                <path d="M93.9133807,29.9410526 C93.8000284,29.8863158 93.748892,29.7566316 93.8000284,29.6446316 L96.0559943,24.7486316 C96.1037216,24.6408421 96.2409375,24.5869474 96.3525852,24.6408421 C96.4650852,24.6905263 96.5162216,24.8202105 96.4650852,24.9330526 L94.2116761,29.8273684 C94.1733239,29.9124211 94.092358,29.9629474 94.0062784,29.9629474 C93.9747443,29.9629474 93.9432102,29.952 93.9133807,29.9410526" id="Fill-77" fill="#ADE0EE"></path>
                <path d="M97.6129261,24.8415158 L95.3578125,29.7366737" id="Fill-79" fill="#ADE0EE"></path>
                <path d="M95.2658523,29.9410526 C95.1516477,29.8863158 95.1013636,29.7566316 95.1516477,29.6446316 L97.4050568,24.7486316 C97.45875,24.6408421 97.5917045,24.5869474 97.7025,24.6408421 C97.8175568,24.6905263 97.8678409,24.8202105 97.8158523,24.9330526 L95.5632955,29.8273684 C95.5266477,29.9124211 95.443125,29.9629474 95.3570455,29.9629474 C95.3272159,29.9629474 95.2939773,29.952 95.2658523,29.9410526" id="Fill-81" fill="#ADE0EE"></path>
                <path d="M98.9629261,24.8415158 L96.7086648,29.7366737" id="Fill-83" fill="#ADE0EE"></path>
                <path d="M96.6166193,29.9410526 C96.5007102,29.8863158 96.452983,29.7566316 96.503267,29.6446316 L98.7583807,24.7486316 C98.8078125,24.6408421 98.9424716,24.5869474 99.0558239,24.6408421 C99.1683239,24.6905263 99.2211648,24.8202105 99.1683239,24.9330526 L96.9132102,29.8273684 C96.8791193,29.9124211 96.793892,29.9629474 96.7086648,29.9629474 C96.6796875,29.9629474 96.6455966,29.952 96.6166193,29.9410526" id="Fill-85" fill="#ADE0EE"></path>
                <path d="M100.313693,24.8415158 L98.0611364,29.7366737" id="Fill-87" fill="#ADE0EE"></path>
                <path d="M97.9691761,29.9410526 C97.8541193,29.8863158 97.8072443,29.7566316 97.8558239,29.6446316 L100.110085,24.7486316 C100.161222,24.6408421 100.295881,24.5869474 100.404972,24.6408421 C100.520881,24.6905263 100.572869,24.8202105 100.520881,24.9330526 L98.2674716,29.8273684 C98.2291193,29.9124211 98.1490057,29.9629474 98.0612216,29.9629474 C98.031392,29.9629474 97.9981534,29.952 97.9691761,29.9410526" id="Fill-89" fill="#ADE0EE"></path>
                <path d="M101.665398,24.8415158 L99.4128409,29.7366737" id="Fill-91" fill="#ADE0EE"></path>
                <path d="M99.3199432,29.9410526 C99.2074432,29.8863158 99.15375,29.7566316 99.2074432,29.6446316 L101.46,24.7486316 C101.511989,24.6408421 101.645795,24.5869474 101.759148,24.6408421 C101.871648,24.6905263 101.922784,24.8202105 101.870795,24.9330526 L99.6190909,29.8273684 C99.5807386,29.9124211 99.4989205,29.9629474 99.4128409,29.9629474 C99.3821591,29.9629474 99.350625,29.952 99.3199432,29.9410526" id="Fill-93" fill="#ADE0EE"></path>
                <path d="M103.018722,24.8415158 L100.76446,29.7366737" id="Fill-95" fill="#ADE0EE"></path>
                <path d="M100.673267,29.9410526 C100.559062,29.8863158 100.507074,29.7566316 100.560767,29.6446316 L102.811619,24.7486316 C102.863608,24.6408421 102.99571,24.5869474 103.111619,24.6408421 C103.223267,24.6905263 103.274403,24.8202105 103.222415,24.9330526 L100.97071,29.8273684 C100.932358,29.9124211 100.849687,29.9629474 100.76446,29.9629474 C100.730369,29.9629474 100.701392,29.952 100.673267,29.9410526" id="Fill-97" fill="#ADE0EE"></path>
                <path d="M104.369489,24.8415158 L102.115227,29.7366737" id="Fill-99" fill="#ADE0EE"></path>
                <path d="M102.021563,29.9410526 C101.912472,29.8863158 101.860483,29.7566316 101.913324,29.6446316 L104.162472,24.7486316 C104.216165,24.6408421 104.347415,24.5869474 104.464176,24.6408421 C104.574972,24.6905263 104.627813,24.8202105 104.574119,24.9330526 L102.32071,29.8273684 C102.284915,29.9124211 102.201392,29.9629474 102.115313,29.9629474 C102.083778,29.9629474 102.05054,29.952 102.021563,29.9410526" id="Fill-101" fill="#ADE0EE"></path>
                <path d="M105.721193,24.8415158 L103.467784,29.7366737" id="Fill-103" fill="#ADE0EE"></path>
                <path d="M103.373267,29.9410526 C103.261619,29.8863158 103.209631,29.7566316 103.261619,29.6446316 L105.516733,24.7486316 C105.568722,24.6408421 105.701676,24.5869474 105.813324,24.6408421 C105.927528,24.6905263 105.977813,24.8202105 105.924972,24.9330526 L103.673267,29.8273684 C103.635767,29.9124211 103.553097,29.9629474 103.466165,29.9629474 C103.436335,29.9629474 103.405653,29.952 103.373267,29.9410526" id="Fill-105" fill="#ADE0EE"></path>
                <path d="M107.072813,24.8415158 L104.817699,29.7366737" id="Fill-107" fill="#ADE0EE"></path>
                <path d="M104.725739,29.9410526 C104.614091,29.8863158 104.563807,29.7566316 104.614091,29.6446316 L106.868352,24.7486316 C106.918636,24.6408421 107.050739,24.5869474 107.164943,24.6408421 C107.281705,24.6905263 107.32858,24.8202105 107.276591,24.9330526 L105.025739,29.8273684 C104.989091,29.9124211 104.903864,29.9629474 104.817784,29.9629474 C104.787955,29.9629474 104.757273,29.952 104.725739,29.9410526" id="Fill-109" fill="#ADE0EE"></path>
                <path d="M108.424432,24.8415158 L106.171023,29.7366737" id="Fill-111" fill="#ADE0EE"></path>
                <path d="M106.079915,29.9410526 C105.963153,29.8863158 105.915426,29.7566316 105.96571,29.6446316 L108.219119,24.7486316 C108.269403,24.6408421 108.404915,24.5869474 108.51571,24.6408421 C108.632472,24.6905263 108.681903,24.8202105 108.629915,24.9330526 L106.377358,29.8273684 C106.339858,29.9124211 106.255483,29.9629474 106.171108,29.9629474 C106.140426,29.9629474 106.108892,29.952 106.079915,29.9410526" id="Fill-113" fill="#ADE0EE"></path>
                <path d="M109.774432,24.8415158 L107.524432,29.7366737" id="Fill-115" fill="#ADE0EE"></path>
                <path d="M107.42983,29.9410526 C107.31392,29.8863158 107.26875,29.7566316 107.31733,29.6446316 L109.570739,24.7486316 C109.621023,24.6408421 109.756534,24.5869474 109.869886,24.6408421 C109.984091,24.6905263 110.03267,24.8202105 109.981534,24.9330526 L107.72983,29.8273684 C107.690625,29.9124211 107.607102,29.9629474 107.524432,29.9629474 C107.492045,29.9629474 107.461364,29.952 107.42983,29.9410526" id="Fill-117" fill="#ADE0EE"></path>
                <path d="M111.275881,24.8415158 L109.025028,29.7366737" id="Fill-119" fill="#ADE0EE"></path>
                <path d="M108.932983,29.9410526 C108.817074,29.8863158 108.769347,29.7566316 108.818778,29.6446316 L111.072188,24.7486316 C111.124176,24.6408421 111.258835,24.5869474 111.37304,24.6408421 C111.484688,24.6905263 111.534972,24.8202105 111.482131,24.9330526 L109.232131,29.8273684 C109.192926,29.9124211 109.110256,29.9629474 109.025028,29.9629474 C108.993494,29.9629474 108.96196,29.952 108.932983,29.9410526" id="Fill-121" fill="#ADE0EE"></path>
                <path d="M112.630057,24.8415158 L110.376648,29.7366737" id="Fill-123" fill="#ADE0EE"></path>
                <path d="M110.282983,29.9410526 C110.170483,29.8863158 110.120199,29.7566316 110.172188,29.6446316 L112.424744,24.7486316 C112.476733,24.6408421 112.609688,24.5869474 112.723892,24.6408421 C112.836392,24.6905263 112.888381,24.8202105 112.836392,24.9330526 L110.582983,29.8273684 C110.544631,29.9124211 110.464517,29.9629474 110.376733,29.9629474 C110.346051,29.9629474 110.314517,29.952 110.282983,29.9410526" id="Fill-125" fill="#ADE0EE"></path>
                <path d="M113.982528,24.8415158 L111.728267,29.7366737" id="Fill-127" fill="#ADE0EE"></path>
                <path d="M111.633835,29.9410526 C111.52304,29.8863158 111.471051,29.7566316 111.52304,29.6446316 L113.776449,24.7486316 C113.828437,24.6408421 113.96054,24.5869474 114.075597,24.6408421 C114.189801,24.6905263 114.239233,24.8202105 114.186392,24.9330526 L111.932131,29.8273684 C111.892926,29.9124211 111.815369,29.9629474 111.728438,29.9629474 C111.696903,29.9629474 111.666222,29.952 111.633835,29.9410526" id="Fill-129" fill="#ADE0EE"></path>
                <path d="M115.333381,24.8415158 L113.081676,29.7366737" id="Fill-131" fill="#ADE0EE"></path>
                <path d="M112.988778,29.9410526 C112.874574,29.8863158 112.823438,29.7566316 112.874574,29.6446316 L115.127131,24.7486316 C115.179119,24.6408421 115.312074,24.5869474 115.425426,24.6408421 C115.538778,24.6905263 115.589063,24.8202105 115.538778,24.9330526 L113.286222,29.8273684 C113.247869,29.9124211 113.166051,29.9629474 113.079972,29.9629474 C113.048438,29.9629474 113.016903,29.952 112.988778,29.9410526" id="Fill-133" fill="#ADE0EE"></path>
                <path d="M116.685,24.8415158 L114.431591,29.7366737" id="Fill-135" fill="#ADE0EE"></path>
                <path d="M114.340398,29.9410526 C114.226193,29.8863158 114.176761,29.7566316 114.226193,29.6446316 L116.482159,24.7486316 C116.52733,24.6408421 116.664545,24.5869474 116.777045,24.6408421 C116.892102,24.6905263 116.942386,24.8202105 116.890398,24.9330526 L114.636136,29.8273684 C114.601193,29.9124211 114.51767,29.9629474 114.431591,29.9629474 C114.399205,29.9629474 114.368523,29.952 114.340398,29.9410526" id="Fill-137" fill="#ADE0EE"></path>
                <path d="M118.036705,24.8415158 L115.784148,29.7366737" id="Fill-139" fill="#ADE0EE"></path>
                <path d="M115.69125,29.9410526 C115.575341,29.8863158 115.531023,29.7566316 115.577898,29.6446316 L117.833864,24.7486316 C117.880739,24.6408421 118.017102,24.5869474 118.12875,24.6408421 C118.242955,24.6905263 118.293239,24.8202105 118.242955,24.9330526 L115.990398,29.8273684 C115.952045,29.9124211 115.869375,29.9629474 115.784148,29.9629474 C115.752614,29.9629474 115.72108,29.952 115.69125,29.9410526" id="Fill-141" fill="#ADE0EE"></path>
                <path d="M119.389176,24.8415158 L117.134915,29.7366737" id="Fill-143" fill="#ADE0EE"></path>
                <path d="M117.042102,29.9410526 C116.927898,29.8863158 116.881875,29.7566316 116.930455,29.6446316 L119.184716,24.7486316 C119.232443,24.6408421 119.367955,24.5869474 119.480455,24.6408421 C119.595511,24.6905263 119.645795,24.8202105 119.593807,24.9330526 L117.340398,29.8273684 C117.304602,29.9124211 117.22108,29.9629474 117.135,29.9629474 C117.103466,29.9629474 117.072784,29.952 117.042102,29.9410526" id="Fill-145" fill="#ADE0EE"></path>
                <path d="M120.740795,24.8415158 L118.489943,29.7366737" id="Fill-147" fill="#ADE0EE"></path>
                <path d="M118.394574,29.9410526 C118.281222,29.8863158 118.230938,29.7566316 118.281222,29.6446316 L120.534631,24.7486316 C120.584915,24.6408421 120.720426,24.5869474 120.833778,24.6408421 C120.946278,24.6905263 120.997415,24.8202105 120.946278,24.9330526 L118.693722,29.8273684 C118.654517,29.9124211 118.571847,29.9629474 118.490028,29.9629474 C118.455085,29.9629474 118.425256,29.952 118.394574,29.9410526" id="Fill-149" fill="#ADE0EE"></path>
                <path d="M122.091648,24.8415158 L119.838239,29.7366737" id="Fill-151" fill="#ADE0EE"></path>
                <path d="M119.747045,29.9410526 C119.632841,29.8863158 119.580852,29.7566316 119.635398,29.6446316 L121.88625,24.7486316 C121.938239,24.6408421 122.072898,24.5869474 122.184545,24.6408421 C122.297898,24.6905263 122.348182,24.8202105 122.297898,24.9330526 L120.042784,29.8273684 C120.005284,29.9124211 119.924318,29.9629474 119.838239,29.9629474 C119.807557,29.9629474 119.77517,29.952 119.747045,29.9410526" id="Fill-153" fill="#ADE0EE"></path>
                <path d="M123.444972,24.8415158 L121.189858,29.7366737" id="Fill-155" fill="#ADE0EE"></path>
                <path d="M121.095341,29.9410526 C120.984545,29.8863158 120.934261,29.7566316 120.987102,29.6446316 L123.240511,24.7486316 C123.291648,24.6408421 123.421193,24.5869474 123.538807,24.6408421 C123.647045,24.6905263 123.702443,24.8202105 123.647045,24.9330526 L121.396193,29.8273684 C121.358693,29.9124211 121.276875,29.9629474 121.189943,29.9629474 C121.159261,29.9629474 121.12517,29.952 121.095341,29.9410526" id="Fill-157" fill="#ADE0EE"></path>
                <path d="M124.795739,24.8415158 L122.54233,29.7366737" id="Fill-159" fill="#ADE0EE"></path>
                <path d="M122.447045,29.9410526 C122.33625,29.8863158 122.284261,29.7566316 122.337955,29.6446316 L124.588807,24.7486316 C124.6425,24.6408421 124.775455,24.5869474 124.889659,24.6408421 C125.001307,24.6905263 125.055,24.8202105 124.999602,24.9330526 L122.751307,29.8273684 C122.710398,29.9124211 122.626875,29.9629474 122.5425,29.9629474 C122.511818,29.9629474 122.480284,29.952 122.447045,29.9410526" id="Fill-161" fill="#ADE0EE"></path>
                <path d="M126.147443,24.8415158 L123.89233,29.7366737" id="Fill-163" fill="#ADE0EE"></path>
                <path d="M123.800284,29.9410526 C123.688636,29.8863158 123.6375,29.7566316 123.688636,29.6446316 L125.939489,24.7486316 C125.994034,24.6408421 126.126136,24.5869474 126.238636,24.6408421 C126.353693,24.6905263 126.406534,24.8202105 126.352841,24.9330526 L124.096875,29.8273684 C124.062784,29.9124211 123.978409,29.9629474 123.89233,29.9629474 C123.8625,29.9629474 123.830966,29.952 123.800284,29.9410526" id="Fill-165" fill="#ADE0EE"></path>
                <path d="M127.49821,24.8415158 L125.245653,29.7366737" id="Fill-167" fill="#ADE0EE"></path>
                <path d="M125.151989,29.9410526 C125.040341,29.8863158 124.989205,29.7566316 125.040341,29.6446316 L127.29375,24.7486316 C127.341477,24.6408421 127.479545,24.5869474 127.592045,24.6408421 C127.707955,24.6905263 127.756534,24.8202105 127.704545,24.9330526 L125.451136,29.8273684 C125.413636,29.9124211 125.330114,29.9629474 125.243182,29.9629474 C125.214205,29.9629474 125.18267,29.952 125.151989,29.9410526" id="Fill-169" fill="#ADE0EE"></path>
                <path d="M128.850682,24.8415158 L126.597273,29.7366737" id="Fill-171" fill="#ADE0EE"></path>
                <path d="M126.50446,29.9410526 C126.39196,29.8863158 126.342528,29.7566316 126.39196,29.6446316 L128.645369,24.7486316 C128.69821,24.6408421 128.82946,24.5869474 128.945369,24.6408421 C129.059574,24.6905263 129.104744,24.8202105 129.056165,24.9330526 L126.803608,29.8273684 C126.764403,29.9124211 126.683438,29.9629474 126.597358,29.9629474 C126.565824,29.9629474 126.53429,29.952 126.50446,29.9410526" id="Fill-173" fill="#ADE0EE"></path>
                <path d="M130.203153,24.8415158 L127.951449,29.7366737" id="Fill-175" fill="#ADE0EE"></path>
                <path d="M127.856932,29.9410526 C127.742727,29.8863158 127.693295,29.7566316 127.742727,29.6446316 L129.996136,24.7486316 C130.04642,24.6408421 130.18108,24.5869474 130.296989,24.6408421 C130.409489,24.6905263 130.458068,24.8202105 130.408636,24.9330526 L128.153523,29.8273684 C128.116023,29.9124211 128.034205,29.9629474 127.947273,29.9629474 C127.917443,29.9629474 127.885909,29.952 127.856932,29.9410526" id="Fill-177" fill="#ADE0EE"></path>
                <path d="M131.554858,24.8415158 L129.300597,29.7366737" id="Fill-179" fill="#ADE0EE"></path>
                <path d="M129.206932,29.9410526 C129.095284,29.8863158 129.045,29.7566316 129.095284,29.6446316 L131.348693,24.7486316 C131.398125,24.6408421 131.534489,24.5869474 131.646989,24.6408421 C131.760341,24.6905263 131.811477,24.8202105 131.760341,24.9330526 L129.505227,29.8273684 C129.46858,29.9124211 129.388466,29.9629474 129.300682,29.9629474 C129.269148,29.9629474 129.238466,29.952 129.206932,29.9410526" id="Fill-181" fill="#ADE0EE"></path>
                <path d="M132.908949,24.8415158 L130.652983,29.7366737" id="Fill-183" fill="#ADE0EE"></path>
                <path d="M130.561108,29.9410526 C130.446903,29.8863158 130.396619,29.7566316 130.447756,29.6446316 L132.701165,24.7486316 C132.750597,24.6408421 132.886108,24.5869474 132.996903,24.6408421 C133.111108,24.6905263 133.163097,24.8202105 133.111108,24.9330526 L130.859403,29.8273684 C130.820199,29.9124211 130.737528,29.9629474 130.652301,29.9629474 C130.621619,29.9629474 130.590085,29.952 130.561108,29.9410526" id="Fill-185" fill="#ADE0EE"></path>
                <path d="M134.407926,24.8415158 L132.156222,29.7366737" id="Fill-187" fill="#ADE0EE"></path>
                <path d="M132.060852,29.9410526 C131.949205,29.8863158 131.898068,29.7566316 131.949205,29.6446316 L134.202614,24.7486316 C134.252898,24.6408421 134.386705,24.5869474 134.500057,24.6408421 C134.613409,24.6905263 134.664545,24.8202105 134.612557,24.9330526 L132.360852,29.8273684 C132.321648,29.9124211 132.241534,29.9629474 132.156307,29.9629474 C132.122216,29.9629474 132.091534,29.952 132.060852,29.9410526" id="Fill-189" fill="#ADE0EE"></path>
                <path d="M135.757926,24.8415158 L133.505369,29.7366737" id="Fill-191" fill="#ADE0EE"></path>
                <path d="M133.411705,29.9410526 C133.300057,29.8863158 133.250625,29.7566316 133.300057,29.6446316 L135.554318,24.7486316 C135.607159,24.6408421 135.737557,24.5869474 135.851761,24.6408421 C135.965966,24.6905263 136.01625,24.8202105 135.962557,24.9330526 L133.710852,29.8273684 C133.671648,29.9124211 133.590682,29.9629474 133.504602,29.9629474 C133.474773,29.9629474 133.443239,29.952 133.411705,29.9410526" id="Fill-193" fill="#ADE0EE"></path>
                <path d="M137.112955,24.8415158 L134.857841,29.7366737" id="Fill-195" fill="#ADE0EE"></path>
                <path d="M134.765881,29.9410526 C134.652528,29.8863158 134.598835,29.7566316 134.652528,29.6446316 L136.907642,24.7486316 C136.956222,24.6408421 137.090881,24.5869474 137.202528,24.6408421 C137.317585,24.6905263 137.366165,24.8202105 137.314176,24.9330526 L135.062472,29.8273684 C135.024972,29.9124211 134.943153,29.9629474 134.855369,29.9629474 C134.826392,29.9629474 134.796563,29.952 134.765881,29.9410526" id="Fill-197" fill="#ADE0EE"></path>
                <path d="M138.462955,24.8415158 L136.209545,29.7366737" id="Fill-199" fill="#ADE0EE"></path>
                <path d="M136.1175,29.9410526 C136.004148,29.8863158 135.952159,29.7566316 136.004148,29.6446316 L138.257557,24.7486316 C138.309545,24.6408421 138.443352,24.5869474 138.558409,24.6408421 C138.668352,24.6905263 138.720341,24.8202105 138.6675,24.9330526 L136.414091,29.8273684 C136.377443,29.9124211 136.293068,29.9629474 136.209545,29.9629474 C136.178864,29.9629474 136.146477,29.952 136.1175,29.9410526" id="Fill-201" fill="#ADE0EE"></path>
                <path d="M139.814574,24.8415158 L137.561165,29.7366737" id="Fill-203" fill="#ADE0EE"></path>
                <path d="M137.468352,29.9410526 C137.355852,29.8863158 137.304716,29.7566316 137.355852,29.6446316 L139.609261,24.7486316 C139.660398,24.6408421 139.794205,24.5869474 139.908409,24.6408421 C140.020909,24.6905263 140.072045,24.8202105 140.019205,24.9330526 L137.766648,29.8273684 C137.73,29.9124211 137.649886,29.9629474 137.56125,29.9629474 C137.530568,29.9629474 137.498182,29.952 137.468352,29.9410526" id="Fill-205" fill="#ADE0EE"></path>
                <path d="M141.165341,24.8415158 L138.912784,29.7366737" id="Fill-207" fill="#ADE0EE"></path>
                <path d="M138.821591,29.9410526 C138.70483,29.8863158 138.658807,29.7566316 138.706534,29.6446316 L140.960795,24.7486316 C141.01108,24.6408421 141.147443,24.5869474 141.259091,24.6408421 C141.372443,24.6905263 141.422727,24.8202105 141.372443,24.9330526 L139.119886,29.8273684 C139.083239,29.9124211 138.998864,29.9629474 138.912784,29.9629474 C138.88125,29.9629474 138.849716,29.952 138.821591,29.9410526" id="Fill-209" fill="#ADE0EE"></path>
                <path d="M142.519517,24.8415158 L140.266108,29.7366737" id="Fill-211" fill="#ADE0EE"></path>
                <path d="M140.170824,29.9410526 C140.057472,29.8863158 140.009744,29.7566316 140.060881,29.6446316 L142.313438,24.7486316 C142.365426,24.6408421 142.498381,24.5869474 142.609176,24.6408421 C142.724233,24.6905263 142.777074,24.8202105 142.724233,24.9330526 L140.472528,29.8273684 C140.430767,29.9124211 140.350653,29.9629474 140.266278,29.9629474 C140.235597,29.9629474 140.201506,29.952 140.170824,29.9410526" id="Fill-213" fill="#ADE0EE"></path>
                <path d="M143.869517,24.8415158 L141.61696,29.7366737" id="Fill-215" fill="#ADE0EE"></path>
                <path d="M141.524915,29.9410526 C141.409006,29.8863158 141.360426,29.7566316 141.411563,29.6446316 L143.664119,24.7486316 C143.713551,24.6408421 143.850767,24.5869474 143.96071,24.6408421 C144.075767,24.6905263 144.126051,24.8202105 144.075767,24.9330526 L141.82321,29.8273684 C141.784858,29.9124211 141.703892,29.9629474 141.61696,29.9629474 C141.585426,29.9629474 141.553892,29.952 141.524915,29.9410526" id="Fill-217" fill="#ADE0EE"></path>
                <path d="M145.221136,24.8415158 L142.96858,29.7366737" id="Fill-219" fill="#ADE0EE"></path>
                <path d="M142.875767,29.9410526 C142.761563,29.8863158 142.712131,29.7566316 142.763267,29.6446316 L145.015824,24.7486316 C145.065256,24.6408421 145.200767,24.5869474 145.314972,24.6408421 C145.429176,24.6905263 145.478608,24.8202105 145.427472,24.9330526 L143.174063,29.8273684 C143.136563,29.9124211 143.055597,29.9629474 142.968665,29.9629474 C142.937131,29.9629474 142.905597,29.952 142.875767,29.9410526" id="Fill-221" fill="#ADE0EE"></path>
                <path d="M146.572841,24.8415158 L144.319432,29.7366737" id="Fill-223" fill="#ADE0EE"></path>
                <path d="M144.225767,29.9410526 C144.114972,29.8863158 144.063835,29.7566316 144.117528,29.6446316 L146.364972,24.7486316 C146.420369,24.6408421 146.551619,24.5869474 146.667528,24.6408421 C146.779176,24.6905263 146.830313,24.8202105 146.776619,24.9330526 L144.525767,29.8273684 C144.487415,29.9124211 144.404744,29.9629474 144.318665,29.9629474 C144.291392,29.9629474 144.258153,29.952 144.225767,29.9410526" id="Fill-225" fill="#ADE0EE"></path>
                <path d="M147.925312,24.8415158 L145.671051,29.7366737" id="Fill-227" fill="#ADE0EE"></path>
                <path d="M145.577386,29.9410526 C145.465739,29.8863158 145.416307,29.7566316 145.465739,29.6446316 L147.718295,24.7486316 C147.772841,24.6408421 147.903239,24.5869474 148.017443,24.6408421 C148.1325,24.6905263 148.181932,24.8202105 148.129091,24.9330526 L145.876534,29.8273684 C145.839886,29.9124211 145.75892,29.9629474 145.671136,29.9629474 C145.640455,29.9629474 145.608068,29.952 145.577386,29.9410526" id="Fill-229" fill="#ADE0EE"></path>
                <path d="M149.276932,24.8415158 L147.024375,29.7366737" id="Fill-231" fill="#ADE0EE"></path>
                <path d="M146.929858,29.9410526 C146.81821,29.8863158 146.767926,29.7566316 146.81821,29.6446316 L149.070767,24.7486316 C149.121903,24.6408421 149.256562,24.5869474 149.36821,24.6408421 C149.484119,24.6905263 149.532699,24.8202105 149.483267,24.9330526 L147.23071,29.8273684 C147.191506,29.9124211 147.109687,29.9629474 147.02446,29.9629474 C146.992926,29.9629474 146.958835,29.952 146.929858,29.9410526" id="Fill-233" fill="#ADE0EE"></path>
            </g>
        </g>
    </g>
</svg>